# xmcd
#
# Track frame offsets:
#	150
#	16260
#	40327
#	56667
#	75440
#	90567
#	108577
#	128915
#	132327
#	147182
#	167047
#	180280
#	200727
#	225120
#	245267
#
# Disc length: 3421
#
# Revision: 2
# Processed by: cddbd v1.5.1PL0 Copyright (c) Steve Scherf et al.
# Submitted via: CDex 1.40Beta3
# Normalized: r1:TRMNUM
#
DISCID=bb0d5b0f
DTITLE=Jimmy R Band - Lost Highway
DYEAR=1993
DGENRE=Blues
TTITLE0=1(I've seen ) Better Days
TTITLE1=Rich Man Poor Man Blues
TTITLE2=Can't Judge A Book
TTITLE3=The Lesson
TTITLE4=Been Down That Road Before
TTITLE5=In My Dreams
TTITLE6=The Rebel Song
TTITLE7=Hang Time
TTITLE8=Bang Time
TTITLE9=Inside Man
TTITLE10=Don't Go No Further
TTITLE11=Comin' Down Hard
TTITLE12=Lil Ezy
TTITLE13=I Am
TTITLE14=Hot,Blue, And Righteous
EXTD=YEAR: 1993 ID3G:   0
EXTT0=
EXTT1=
EXTT2=
EXTT3=
EXTT4=
EXTT5=
EXTT6=
EXTT7=
EXTT8=
EXTT9=
EXTT10=
EXTT11=
EXTT12=
EXTT13=
EXTT14=
PLAYORDER=
